#!OML:ASF E:\emotionWalksFemale\Project 1\Capture day 1\Session 1\Female1.ASF
:FULLY-SPECIFIED
:DEGREES
2406
root 9.53712 15.2711 14.4351 0.937096 -2.55258 -5.85811
lowerback 7.00454 1.16324 2.95248
upperback 2.40519 1.76756 1.25498
thorax -1.39355 0.883657 -0.50656
lowerneck -6.57392 -1.71461 -5.57341
upperneck 47.8879 -2.0421 1.85757
head 19.9421 -1.60743 1.61113
rclavicle 6.75868e-015 -1.19271e-014
rhumerus -35.9649 7.7573 -88.7793
rradius 30.7901
rwrist 17.6354
rhand -6.24226 -49.8104
rfingers 7.12502
rthumb 19.5995 -78.8424
lclavicle 6.75868e-015 -1.19271e-014
lhumerus -34.7072 15.3446 78.66
lradius 34.2822
lwrist -15.1093
lhand -1.65044 -29.5937
lfingers 7.12502
lthumb 24.0086 -1.07521
rfemur 11.5142 8.69057 37.5244
rtibia 16.3544
rfoot -12.1601 -13.6571
rtoes 0.721684
lfemur -32.4018 -28.9517 -6.60768
ltibia 30.4789
lfoot -29.8673 28.3186
ltoes 2.18599
2407
root 9.55505 15.2643 14.5277 0.920104 -2.65096 -5.81049
lowerback 7.16872 1.20817 2.87948
upperback 2.26618 1.83144 1.19022
thorax -1.62635 0.911438 -0.543695
lowerneck -6.56482 -1.72984 -5.47806
upperneck 47.8952 -2.04846 1.76248
head 19.941 -1.60506 1.54401
rclavicle -1.74434e-014 -9.14409e-015
rhumerus -36.277 7.89399 -88.9085
rradius 30.9075
rwrist 17.507
rhand -5.99412 -49.7507
rfingers 7.12502
rthumb 19.838 -78.7583
lclavicle -1.74434e-014 -9.14409e-015
lhumerus -34.856 15.2976 78.5568
lradius 34.2945
lwrist -14.9813
lhand -1.53372 -29.7712
lfingers 7.12502
lthumb 24.1205 -1.26747
rfemur 11.5081 8.43189 37.3277
rtibia 17.0548
rfoot -11.9892 -13.2523
rtoes 0.0788514
lfemur -31.9022 -29.0446 -6.90809
ltibia 30.3459
lfoot -30.5055 27.8094
ltoes 6.14619
2408
root 9.57328 15.26 14.6265 0.901604 -2.6945 -5.84157
lowerback 7.28799 1.19457 2.83015
upperback 2.06812 1.82024 1.19483
thorax -1.89897 0.900859 -0.51648
lowerneck -6.47674 -1.69955 -5.46279
upperneck 48.0346 -1.98168 1.69377
head 20.0114 -1.58912 1.51966
rclavicle 1.90833e-014 -1.11319e-014
rhumerus -36.7406 8.06542 -88.9946
rradius 31.0165
rwrist 17.3391
rhand -5.86616 -49.655
rfingers 7.12502
rthumb 19.961 -78.6498
lclavicle 1.90833e-014 -1.11319e-014
lhumerus -35.2141 15.5275 78.3679
lradius 34.3448
lwrist -15.088
lhand -1.41266 -29.8534
lfingers 7.12502
lthumb 24.2366 -1.36511
rfemur 11.532 8.10719 37.2111
rtibia 17.7275
rfoot -11.769 -12.8678
rtoes -0.762556
lfemur -31.3745 -29.1196 -7.16489
ltibia 30.2393
lfoot -32.7772 25.4972
ltoes 20.4374
2409
root 9.59709 15.2588 14.7299 1.04974 -2.68886 -5.85993
lowerback 7.03827 1.12196 2.81465
upperback 1.91696 1.71782 1.21616
thorax -1.92024 0.848575 -0.473343
lowerneck -6.49914 -1.62493 -5.45817
upperneck 48.1391 -1.82484 1.59865
head 20.0835 -1.54252 1.49817
rclavicle -1.94312e-014 1.19271e-015
rhumerus -37.0236 8.20953 -89.0316
rradius 31.052
rwrist 17.2169
rhand -5.70945 -49.669
rfingers 7.12502
rthumb 20.1116 -78.648
lclavicle -1.94312e-014 1.19271e-015
lhumerus -35.4704 15.7426 78.2708
lradius 34.3746
lwrist -15.1379
lhand -1.34762 -29.7698
lfingers 7.12502
lthumb 24.299 -1.28982
rfemur 11.4951 7.64234 36.9815
rtibia 18.2134
rfoot -11.4168 -12.4125
rtoes -1.64799
lfemur -31.1126 -29.4226 -7.33574
ltibia 30.2421
lfoot -30.7632 27.9994
ltoes 7.8102
2410
root 9.61502 15.2635 14.8414 1.08943 -2.80111 -5.88484
lowerback 6.72193 1.15849 2.78077
upperback 1.90758 1.7519 1.20411
thorax -1.75373 0.867752 -0.462126
lowerneck -6.61545 -1.63065 -5.39602
upperneck 48.086 -1.79668 1.49631
head 20.0739 -1.53187 1.43799
rclavicle 1.05356e-014 6.75868e-015
rhumerus -37.0992 8.04833 -89.0154
rradius 30.9938
rwrist 17.3594
rhand -5.28397 -49.669
rfingers 7.12502
rthumb 20.5205 -78.6045
lclavicle 1.05356e-014 6.75868e-015
lhumerus -35.3521 15.6234 78.312
lradius 34.2303
lwrist -14.9726
lhand -1.18516 -29.6567
lfingers 7.12502
lthumb 24.4547 -1.19774
rfemur 11.6064 7.54325 36.8983
rtibia 18.6786
rfoot -11.1157 -12.2789
rtoes -2.13483
lfemur -30.5691 -29.2759 -7.75506
ltibia 30.2633
lfoot -29.2069 29.3794
ltoes -0.790316
2411
root 9.6351 15.2782 14.9509 1.06244 -2.89104 -5.7791
lowerback 6.66341 1.19335 2.70936
upperback 1.78574 1.79352 1.15305
thorax -1.8462 0.886703 -0.478338
lowerneck -6.53386 -1.63694 -5.47781
upperneck 48.1054 -1.75634 1.42709
head 20.0637 -1.54039 1.42511
rclavicle 2.40529e-014 5.96354e-015
rhumerus -37.4443 8.0514 -89.017
rradius 31.0452
rwrist 17.3513
rhand -5.21351 -49.6811
rfingers 7.12502
rthumb 20.5883 -78.6093
lclavicle 2.40529e-014 5.96354e-015
lhumerus -35.5136 15.4811 78.3699
lradius 34.3397
lwrist -14.7782
lhand -0.901336 -29.6067
lfingers 7.12502
lthumb 24.7268 -1.1847
rfemur 11.7741 7.44324 36.6561
rtibia 19.1297
rfoot -10.8572 -12.1884
rtoes -3.02374
lfemur -29.8439 -28.7658 -8.58478
ltibia 30.3271
lfoot -27.431 30.3375
ltoes -8.45141
2412
root 9.65842 15.274 15.0557 1.05976 -2.91276 -5.72253
lowerback 6.77211 1.19316 2.67857
upperback 1.56028 1.80058 1.12309
thorax -2.13895 0.885142 -0.498538
lowerneck -6.42114 -1.60131 -5.63846
upperneck 48.1977 -1.71518 1.54119
head 20.102 -1.54278 1.52139
rclavicle 1.09829e-014 1.15295e-014
rhumerus -37.947 8.19367 -89.0404
rradius 31.191
rwrist 17.1877
rhand -5.37238 -49.7409
rfingers 7.12502
rthumb 20.4356 -78.6855
lclavicle 1.09829e-014 1.15295e-014
lhumerus -35.9134 15.2393 78.4175
lradius 34.5926
lwrist -14.4629
lhand -0.911607 -29.6003
lfingers 7.12502
lthumb 24.7169 -1.17693
rfemur 11.8681 7.09968 36.3997
rtibia 19.6158
rfoot -10.2959 -11.8771
rtoes -3.9882
lfemur -29.7291 -30.5359 -8.27283
ltibia 30.3961
lfoot -30.2248 29.6568
ltoes 4.27972
2413
root 9.67888 15.2775 15.1613 1.07273 -2.93742 -5.73911
lowerback 6.19854 1.18133 2.65101
upperback 1.76471 1.75671 1.12211
thorax -1.61095 0.871341 -0.463556
lowerneck -6.58648 -1.57409 -5.74556
upperneck 48.0433 -1.71886 1.72747
head 20.0416 -1.53831 1.6325
rclavicle 3.18055e-015 6.75868e-015
rhumerus -37.7 8.36278 -89.0224
rradius 31.1418
rwrist 17.1099
rhand -5.38766 -49.7418
rfingers 7.12502
rthumb 20.4209 -78.688
lclavicle 3.18055e-015 6.75868e-015
lhumerus -35.5992 15.2635 78.527
lradius 34.6023
lwrist -14.3304
lhand -1.01803 -29.5566
lfingers 7.12502
lthumb 24.6149 -1.11936
rfemur 11.8347 6.72582 36.2143
rtibia 20.2736
rfoot -9.67186 -11.3774
rtoes -4.31687
lfemur -29.4917 -31.5002 -8.21796
ltibia 30.4152
lfoot -31.3615 29.3474
ltoes 11.1313
2414
root 9.70019 15.2912 15.2722 1.05408 -2.92855 -5.67872
lowerback 5.87455 1.18961 2.65012
upperback 1.82408 1.75277 1.03044
thorax -1.36667 0.872898 -0.548048
lowerneck -6.6621 -1.60108 -5.6671
upperneck 47.9308 -1.79759 1.76869
head 19.9845 -1.54814 1.62301
rclavicle -1.95306e-014 3.97569e-016
rhumerus -37.6344 8.3036 -89.077
rradius 30.9812
rwrist 17.1151
rhand -5.44764 -49.5532
rfingers 7.12502
rthumb 20.3633 -78.5056
lclavicle -1.95306e-014 3.97569e-016
lhumerus -35.612 15.3006 78.4913
lradius 34.7653
lwrist -14.4925
lhand -0.806703 -29.5449
lfingers 7.12502
lthumb 24.8175 -1.13542
rfemur 11.7492 6.38749 35.9429
rtibia 21.1534
rfoot -9.34445 -10.8133
rtoes -4.66145
lfemur -28.9424 -31.5331 -8.69222
ltibia 30.3313
lfoot -31.1971 28.8036
ltoes 14.688
2415
root 9.72613 15.3044 15.3779 1.07973 -2.8227 -5.37309
lowerback 5.87716 1.16123 2.47935
upperback 1.68865 1.70566 0.871184
thorax -1.50903 0.847103 -0.614942
lowerneck -6.73093 -1.62983 -5.62756
upperneck 47.9725 -1.82714 1.71915
head 20.036 -1.56029 1.58554
rclavicle -1.92821e-014 4.37326e-015
rhumerus -37.7516 8.20332 -89.0766
rradius 30.7376
rwrist 17.2375
rhand -5.41812 -49.0046
rfingers 7.12502
rthumb 20.3916 -77.9539
lclavicle -1.92821e-014 4.37326e-015
lhumerus -35.8164 15.4343 78.3905
lradius 34.8776
lwrist -14.7288
lhand -0.56411 -29.6064
lfingers 7.12502
lthumb 25.0499 -1.22914
rfemur 11.5564 5.93809 35.3315
rtibia 22.0789
rfoot -9.00911 -10.1843
rtoes -4.53026
lfemur -28.4077 -31.3121 -9.50962
ltibia 30.2198
lfoot -30.5806 28.1353
ltoes 16.9364
